<?xml version="1.0" encoding="UTF-8" standalone="no"?>
<svg
   xmlns:dc="http://purl.org/dc/elements/1.1/"
   xmlns:cc="http://creativecommons.org/ns#"
   xmlns:rdf="http://www.w3.org/1999/02/22-rdf-syntax-ns#"
   xmlns:svg="http://www.w3.org/2000/svg"
   xmlns="http://www.w3.org/2000/svg"
   xmlns:sodipodi="http://sodipodi.sourceforge.net/DTD/sodipodi-0.dtd"
   xmlns:inkscape="http://www.inkscape.org/namespaces/inkscape"
   version="1.1"
   x="0px"
   y="0px"
   viewBox="0 0 149.776 339.1725"
   style="enable-background:new 0 0 149.776 271.338;"
   xml:space="preserve"
   id="svg12"
   sodipodi:docname="noun_Obesity_687030.svg"
   inkscape:version="0.92.4 (5da689c313, 2019-01-14)"><metadata
     id="metadata18"><rdf:RDF><cc:Work
         rdf:about=""><dc:format>image/svg+xml</dc:format><dc:type
           rdf:resource="http://purl.org/dc/dcmitype/StillImage" /></cc:Work></rdf:RDF></metadata><defs
     id="defs16" /><sodipodi:namedview
     pagecolor="#ffffff"
     bordercolor="#666666"
     borderopacity="1"
     objecttolerance="10"
     gridtolerance="10"
     guidetolerance="10"
     inkscape:pageopacity="0"
     inkscape:pageshadow="2"
     inkscape:window-width="1366"
     inkscape:window-height="705"
     id="namedview14"
     showgrid="false"
     inkscape:zoom="0.69581116"
     inkscape:cx="-495.28628"
     inkscape:cy="343.2133"
     inkscape:window-x="-8"
     inkscape:window-y="-8"
     inkscape:window-maximized="1"
     inkscape:current-layer="svg12" /><g
     id="g6"
     transform="translate(7.7588541e-6,33.918242)"><path
       d="m 115.865,54.302 c -6.519,-3.886 -12.179,-5.38 -15.415,-5.959 -5.747,8.183 -15.221,13.563 -25.938,13.649 -0.086,0 -0.172,-0.006 -0.258,-0.006 -0.087,0 -0.173,0.006 -0.26,0.006 -10.62,-0.085 -20.019,-5.371 -25.78,-13.431 -1.549,0.329 -3.485,0.843 -5.707,1.646 -7.654,2.722 -18.785,9.197 -27.52,22.739 C 6.22,86.471 -0.011,106.487 0,135.749 c 0,9.508 0.651,20.013 2.089,31.648 0.688,5.57 5.431,9.652 10.905,9.652 0.449,0 0.903,-0.027 1.361,-0.084 4.995,-0.618 8.783,-4.497 9.515,-9.237 l 18.178,91.67 c 0,6.594 6.604,11.939 14.749,11.939 8.147,0 14.754,-5.346 14.754,-11.939 v -74.9 c 0.898,0.042 1.799,0.068 2.703,0.068 0.903,0 1.805,-0.026 2.703,-0.068 v 74.9 c 0,6.594 6.606,11.939 14.753,11.939 8.145,0 14.751,-5.346 14.751,-11.939 l 20.168,-101.715 c -0.225,2.283 -0.478,4.614 -0.774,7.017 -0.744,6.03 3.54,11.521 9.57,12.266 0.458,0.057 0.912,0.084 1.361,0.084 5.474,0 10.215,-4.082 10.902,-9.652 1.437,-11.638 2.088,-22.141 2.088,-31.648 0,-19.53 -2.752,-34.887 -7.201,-47.012 -6.616,-18.202 -17.36,-28.918 -26.71,-34.436 z m -104.111,70.85 c 0,-17.949 6.757,-33.529 19.021,-45.216 0.452,-0.431 0.992,-0.844 1.595,-1.241 -10.913,10.521 -17.956,25.556 -17.956,43.797 0,15.663 5.201,29.237 13.576,39.673 -9.828,-7.256 -16.236,-18.833 -16.236,-37.013 z m 108.762,37.015 c 8.376,-10.436 13.578,-24.011 13.578,-39.675 0,-18.241 -7.043,-33.273 -17.955,-43.795 0.603,0.397 1.141,0.809 1.593,1.239 12.266,11.69 19.022,27.267 19.022,45.216 0,18.181 -6.409,29.759 -16.238,37.015 z"
       id="path2"
       inkscape:connector-curvature="0" /><circle
       cx="74.253998"
       cy="29.999001"
       r="30"
       id="circle4" /></g></svg>