<?xml version="1.0" encoding="UTF-8" standalone="no"?>
<svg
   xmlns:dc="http://purl.org/dc/elements/1.1/"
   xmlns:cc="http://creativecommons.org/ns#"
   xmlns:rdf="http://www.w3.org/1999/02/22-rdf-syntax-ns#"
   xmlns:svg="http://www.w3.org/2000/svg"
   xmlns="http://www.w3.org/2000/svg"
   xmlns:sodipodi="http://sodipodi.sourceforge.net/DTD/sodipodi-0.dtd"
   xmlns:inkscape="http://www.inkscape.org/namespaces/inkscape"
   version="1.1"
   x="0px"
   y="0px"
   viewBox="0 0 134.415 349.84625"
   style="enable-background:new 0 0 134.415 279.877;"
   xml:space="preserve"
   id="svg12"
   sodipodi:docname="noun_Broad Shoulder Man_687025.svg"
   inkscape:version="0.92.4 (5da689c313, 2019-01-14)"><metadata
     id="metadata18"><rdf:RDF><cc:Work
         rdf:about=""><dc:format>image/svg+xml</dc:format><dc:type
           rdf:resource="http://purl.org/dc/dcmitype/StillImage" /></cc:Work></rdf:RDF></metadata><defs
     id="defs16" /><sodipodi:namedview
     pagecolor="#ffffff"
     bordercolor="#666666"
     borderopacity="1"
     objecttolerance="10"
     gridtolerance="10"
     guidetolerance="10"
     inkscape:pageopacity="0"
     inkscape:pageshadow="2"
     inkscape:window-width="1366"
     inkscape:window-height="705"
     id="namedview14"
     showgrid="false"
     inkscape:zoom="0.67458204"
     inkscape:cx="67.207497"
     inkscape:cy="174.92313"
     inkscape:window-x="-8"
     inkscape:window-y="-8"
     inkscape:window-maximized="1"
     inkscape:current-layer="svg12" /><g
     id="g6"
     transform="translate(4.9664307e-4,34.97853)"><ellipse
       transform="matrix(0.2268,-0.9739,0.9739,0.2268,25.98,86.0937)"
       cx="67.210999"
       cy="26.684999"
       rx="26.679001"
       ry="26.677999"
       id="ellipse2" /><path
       d="m 108.647,60.549 c -1.876,-0.791 -3.591,-1.259 -5.065,-1.54 -0.916,-0.248 -1.866,-0.392 -2.847,-0.392 H 33.687 c -0.974,0 -1.918,0.142 -2.828,0.386 -1.479,0.28 -3.202,0.75 -5.088,1.544 C 19.823,62.976 12.798,68.804 8.005,79.085 3.146,89.383 0.017,103.945 0,125.526 c 0,11.267 0.868,24.469 2.885,40.033 0.685,5.293 5.202,9.152 10.4,9.153 0.45,0 0.903,-0.029 1.361,-0.088 5.752,-0.747 9.81,-6.011 9.064,-11.763 C 21.789,148.04 21,135.712 21,125.526 20.982,110.72 22.685,100.554 24.817,93.713 l 9.643,54.022 v 117.142 c 0,8.284 6.716,14.999 15,14.999 8.283,0 15.002,-6.716 15.002,-14.999 V 160.472 h 5.498 v 104.406 c 0,8.283 6.714,15 15,15 8.285,0 15.001,-6.717 15.001,-15 V 147.73 l 9.643,-54.016 c 2.133,6.837 3.82,17.056 3.811,31.812 0,10.187 -0.788,22.515 -2.705,37.337 -0.746,5.752 3.313,11.017 9.064,11.76 0.457,0.059 0.911,0.088 1.36,0.088 5.2,0 9.717,-3.86 10.402,-9.155 2.011,-15.563 2.878,-28.764 2.878,-40.031 -0.03,-28.708 -5.555,-45.221 -13.416,-55.274 -3.908,-4.973 -8.423,-8.066 -12.351,-9.702 z"
       id="path4"
       inkscape:connector-curvature="0" /></g></svg>