<?xml version="1.0" encoding="UTF-8" standalone="no"?>
<svg
   xmlns:dc="http://purl.org/dc/elements/1.1/"
   xmlns:cc="http://creativecommons.org/ns#"
   xmlns:rdf="http://www.w3.org/1999/02/22-rdf-syntax-ns#"
   xmlns:svg="http://www.w3.org/2000/svg"
   xmlns="http://www.w3.org/2000/svg"
   xmlns:sodipodi="http://sodipodi.sourceforge.net/DTD/sodipodi-0.dtd"
   xmlns:inkscape="http://www.inkscape.org/namespaces/inkscape"
   version="1.1"
   x="0px"
   y="0px"
   viewBox="0 0 77.969 293.76124999999996"
   style="enable-background:new 0 0 77.969 235.009;"
   xml:space="preserve"
   id="svg12"
   sodipodi:docname="noun_Thin Man_687026.svg"
   inkscape:version="0.92.4 (5da689c313, 2019-01-14)"><metadata
     id="metadata18"><rdf:RDF><cc:Work
         rdf:about=""><dc:format>image/svg+xml</dc:format><dc:type
           rdf:resource="http://purl.org/dc/dcmitype/StillImage" /></cc:Work></rdf:RDF></metadata><defs
     id="defs16" /><sodipodi:namedview
     pagecolor="#ffffff"
     bordercolor="#666666"
     borderopacity="1"
     objecttolerance="10"
     gridtolerance="10"
     guidetolerance="10"
     inkscape:pageopacity="0"
     inkscape:pageshadow="2"
     inkscape:window-width="1366"
     inkscape:window-height="705"
     id="namedview14"
     showgrid="false"
     inkscape:zoom="0.80337346"
     inkscape:cx="38.984501"
     inkscape:cy="146.88063"
     inkscape:window-x="-8"
     inkscape:window-y="-8"
     inkscape:window-maximized="1"
     inkscape:current-layer="svg12" /><g
     id="g6"
     transform="translate(0,29.37613)"><path
       d="m 6.576,138.287 c 0.118,0 0.237,-0.003 0.357,-0.011 3.309,-0.194 5.833,-3.033 5.638,-6.342 -0.393,-6.685 -0.572,-12.783 -0.57,-18.338 -0.026,-24.493 3.527,-38.399 7.213,-45.886 v 158.298 c 0,4.97 4.029,9.001 9.002,9.001 4.969,0 8.998,-4.031 8.998,-9.001 v -95.56 h 3.297 v 95.559 c 0,4.971 4.029,9.002 9,9.002 4.971,0 9,-4.031 9,-9.002 V 67.263 c 0.524,1.024 1.049,2.162 1.569,3.457 3.185,7.98 5.896,21.368 5.887,42.876 0.002,5.559 -0.177,11.655 -0.566,18.342 -0.193,3.307 2.332,6.146 5.641,6.339 0.118,0.007 0.235,0.01 0.353,0.01 3.156,0 5.803,-2.462 5.986,-5.653 0.402,-6.896 0.587,-13.226 0.589,-19.039 -0.031,-29.97 -4.86,-46.313 -11.102,-55.826 -3.12,-4.732 -6.683,-7.66 -9.91,-9.274 -1.035,-0.521 -2.016,-0.896 -2.933,-1.178 -0.987,-0.457 -2.083,-0.72 -3.242,-0.72 h -0.567 c -0.29,-0.018 -0.563,-0.028 -0.796,-0.028 -0.304,10e-4 -0.557,0.013 -0.765,0.028 H 29.31 c -0.207,-0.015 -0.458,-0.027 -0.761,-0.027 -0.232,-10e-4 -0.503,0.01 -0.79,0.027 h -0.817 c -1.348,0 -2.613,0.346 -3.716,0.952 -0.707,0.251 -1.447,0.558 -2.215,0.945 C 16.13,50.921 10.674,56.282 6.737,66.287 2.762,76.325 0.01,91.101 0,113.596 c 0,5.814 0.186,12.144 0.592,19.042 0.187,3.189 2.831,5.649 5.984,5.649 z"
       id="path2"
       inkscape:connector-curvature="0" /><path
       d="m 38.863,43.789 c 9.572,0 17.332,-13.071 17.332,-25.164 C 56.195,6.533 48.435,0 38.863,0 29.29,0 21.529,6.533 21.529,18.625 c 0,12.093 7.761,25.164 17.334,25.164 z"
       id="path4"
       inkscape:connector-curvature="0" /></g></svg>