<?xml version="1.0" encoding="UTF-8" standalone="no"?>
<svg
   xmlns:dc="http://purl.org/dc/elements/1.1/"
   xmlns:cc="http://creativecommons.org/ns#"
   xmlns:rdf="http://www.w3.org/1999/02/22-rdf-syntax-ns#"
   xmlns:svg="http://www.w3.org/2000/svg"
   xmlns="http://www.w3.org/2000/svg"
   xmlns:sodipodi="http://sodipodi.sourceforge.net/DTD/sodipodi-0.dtd"
   xmlns:inkscape="http://www.inkscape.org/namespaces/inkscape"
   id="Capa_1"
   enable-background="new 0 0 512 512"
   height="512"
   viewBox="0 0 512 512"
   width="512"
   version="1.1"
   sodipodi:docname="favicon.svg"
   inkscape:export-filename="D:\Proyectos\body-fat-calc\public\img\icons\mstile-150x150.png"
   inkscape:export-xdpi="28.125"
   inkscape:export-ydpi="28.125"
   inkscape:version="1.0 (4035a4fb49, 2020-05-01)">
  <metadata
     id="metadata45">
    <rdf:RDF>
      <cc:Work
         rdf:about="">
        <dc:format>image/svg+xml</dc:format>
        <dc:type
           rdf:resource="http://purl.org/dc/dcmitype/StillImage" />
      </cc:Work>
    </rdf:RDF>
  </metadata>
  <defs
     id="defs43" />
  <sodipodi:namedview
     inkscape:document-rotation="0"
     pagecolor="#ffffff"
     bordercolor="#666666"
     borderopacity="1"
     objecttolerance="10"
     gridtolerance="10"
     guidetolerance="10"
     inkscape:pageopacity="0"
     inkscape:pageshadow="2"
     inkscape:window-width="1366"
     inkscape:window-height="705"
     id="namedview41"
     showgrid="false"
     inkscape:zoom="0.68614411"
     inkscape:cx="32.961133"
     inkscape:cy="314.32663"
     inkscape:window-x="-8"
     inkscape:window-y="-8"
     inkscape:window-maximized="1"
     inkscape:current-layer="Capa_1" />
  <g
     id="g18"
     style="fill:#ccffaa">
    <g
       id="g16"
       style="fill:#ccffaa">
      <g
         id="g14"
         style="fill:#ccffaa">
        <g
           id="g12"
           style="fill:#ccffaa">
          <g
             id="g10"
             style="fill:#ccffaa">
            <g
               id="g8"
               style="fill:#ccffaa">
              <g
                 id="g6"
                 style="fill:#ccffaa">
                <g
                   id="g4"
                   style="fill:#ccffaa">
                  <circle
                     id="circle2"
                     r="256"
                     fill="#fe6a16"
                     cy="256"
                     cx="256"
                     style="fill:#ccffaa" />
                </g>
              </g>
            </g>
          </g>
        </g>
      </g>
    </g>
  </g>
  <path
     id="path20"
     fill="#e83c00"
     d="M 511.98,259.244 355.17,102.434 211.036,156.521 307.78,253.265 81.847,346.002 247.713,511.868 c 2.752,0.088 5.514,0.132 8.287,0.132 140.302,0 254.242,-112.866 255.98,-252.756 z"
     style="fill:#8dd35f" />
  <g
     id="g24">
    <path
       id="path22"
       fill="#ffcdbe"
       d="m 309.058,74.301 -41.263,-8.764 c -24.048,-5.108 -47.896,9.465 -54.323,33.195 l -9.35,34.522 c -3.056,11.283 2.8,23.07 13.637,27.451 l 13.987,5.654 c 9.063,3.664 19.288,3.087 27.881,-1.572 l 48.485,-26.287 30.514,112.307 -26.024,-11.214 c -17.489,-8.902 -38.672,-14.112 -61.497,-14.112 -7.784,0 -15.377,0.606 -22.698,1.758 -17.355,2.73 -35.247,0.275 -50.835,-7.829 -11.871,-6.172 -25.474,-9.472 -39.888,-8.982 -40.014,1.363 -75.467,36.119 -77.569,76.1 -2.441,46.43 34.484,84.842 80.38,84.842 4.429,0 8.774,-0.358 13.009,-1.046 14.53,-2.361 29.475,-0.561 42.993,5.266 16.046,6.918 34.703,10.88 54.609,10.88 7.614,0 15.046,-0.58 22.218,-1.683 77.659,-6.162 125.419,-12.97 152.048,-17.661 16.623,-2.929 28.158,-18.202 26.463,-34.996 C 442.198,236.631 388.365,148.977 358.536,106.858 346.719,90.17 329.059,78.549 309.058,74.301 Z" />
  </g>
  <g
     id="g28">
    <path
       id="path26"
       fill="#ffbeaa"
       d="M 451.835,332.129 C 442.198,236.63 388.365,148.976 358.536,106.857 346.718,90.17 329.059,78.549 309.058,74.301 l -41.263,-8.764 c -3.922,-0.833 -7.838,-1.134 -11.674,-0.965 v 101.85 c 1.193,-0.475 2.366,-1.016 3.508,-1.635 l 48.485,-26.287 30.514,112.307 -26.024,-11.215 c -16.2,-8.246 -35.573,-13.315 -56.482,-14.019 v 160.802 c 5.866,-0.198 11.615,-0.729 17.203,-1.588 77.659,-6.161 125.419,-12.969 152.048,-17.661 16.622,-2.929 28.157,-18.203 26.462,-34.997 z" />
  </g>
  <g
     id="g32">
    <path
       id="path30"
       fill="#faa68e"
       d="m 256.66,358.701 c -53.257,0 -92.527,-17.928 -94.605,-18.896 l 12.637,-27.208 c 0.563,0.259 57.043,25.767 122.406,11.956 l 6.201,29.353 c -16.279,3.438 -31.992,4.795 -46.639,4.795 z" />
  </g>
  <g
     id="g36">
    <path
       id="path34"
       fill="#d47f6c"
       d="m 303.298,353.905 -6.201,-29.353 c -14.243,3.009 -28.063,4.151 -40.976,4.094 v 30.049 c 0.181,0 0.358,0.006 0.539,0.006 14.647,0 30.36,-1.357 46.638,-4.796 z" />
  </g>
</svg>
