<?xml version="1.0" encoding="UTF-8" standalone="no"?>
<svg
   xmlns:dc="http://purl.org/dc/elements/1.1/"
   xmlns:cc="http://creativecommons.org/ns#"
   xmlns:rdf="http://www.w3.org/1999/02/22-rdf-syntax-ns#"
   xmlns:svg="http://www.w3.org/2000/svg"
   xmlns="http://www.w3.org/2000/svg"
   xmlns:sodipodi="http://sodipodi.sourceforge.net/DTD/sodipodi-0.dtd"
   xmlns:inkscape="http://www.inkscape.org/namespaces/inkscape"
   version="1.1"
   x="0px"
   y="0px"
   viewBox="0 0 100.016 296.47875"
   style="enable-background:new 0 0 100.016 237.183;"
   xml:space="preserve"
   id="svg12"
   sodipodi:docname="noun_Normal Size Man_687023.svg"
   inkscape:version="0.92.4 (5da689c313, 2019-01-14)"><metadata
     id="metadata18"><rdf:RDF><cc:Work
         rdf:about=""><dc:format>image/svg+xml</dc:format><dc:type
           rdf:resource="http://purl.org/dc/dcmitype/StillImage" /></cc:Work></rdf:RDF></metadata><defs
     id="defs16" /><sodipodi:namedview
     pagecolor="#ffffff"
     bordercolor="#666666"
     borderopacity="1"
     objecttolerance="10"
     gridtolerance="10"
     guidetolerance="10"
     inkscape:pageopacity="0"
     inkscape:pageshadow="2"
     inkscape:window-width="1366"
     inkscape:window-height="705"
     id="namedview14"
     showgrid="false"
     inkscape:zoom="0.79600981"
     inkscape:cx="50.007999"
     inkscape:cy="148.23938"
     inkscape:window-x="-8"
     inkscape:window-y="-8"
     inkscape:window-maximized="1"
     inkscape:current-layer="svg12" /><g
     id="g6"
     transform="translate(9.9942017e-4,29.64788)"><path
       d="M 16,119.947 C 15.966,95.735 19.495,82.131 22.962,75.031 V 224.82 c 0,6.83 5.537,12.363 12.363,12.363 6.828,0 12.365,-5.533 12.365,-12.363 v -90.271 h 4.635 v 90.271 c 0,6.83 5.537,12.363 12.363,12.363 6.828,0 12.365,-5.533 12.365,-12.363 V 75.07 c 0.592,1.216 1.19,2.611 1.78,4.238 2.818,7.813 5.189,20.63 5.179,40.638 0.002,5.515 -0.176,11.573 -0.563,18.223 -0.257,4.411 3.11,8.196 7.521,8.453 0.159,0.009 0.316,0.014 0.473,0.014 4.205,0.001 7.73,-3.282 7.98,-7.533 0.403,-6.933 0.589,-13.301 0.591,-19.157 C 99.973,89.762 95.152,73.059 88.579,63.014 85.294,58.028 81.451,54.83 77.901,53.059 75.581,51.889 73.455,51.338 71.758,51.095 70.992,50.841 70.175,50.698 69.323,50.698 H 30.691 c -0.852,0 -1.67,0.143 -2.436,0.398 -1.696,0.243 -3.823,0.793 -6.143,1.964 C 16.734,55.727 10.936,61.561 6.878,71.901 2.77,82.281 0.012,97.287 0,119.947 c 0,5.856 0.189,12.224 0.596,19.159 0.248,4.249 3.773,7.531 7.977,7.531 0.158,0 0.316,-0.005 0.477,-0.014 4.411,-0.259 7.776,-4.044 7.519,-8.455 -0.392,-6.65 -0.57,-12.708 -0.569,-18.221 z"
       id="path2"
       inkscape:connector-curvature="0" /><circle
       cx="50.008999"
       cy="22.5"
       r="22.5"
       id="circle4" /></g></svg>