<?xml version="1.0" encoding="UTF-8" standalone="no"?>
<svg
   xmlns:dc="http://purl.org/dc/elements/1.1/"
   xmlns:cc="http://creativecommons.org/ns#"
   xmlns:rdf="http://www.w3.org/1999/02/22-rdf-syntax-ns#"
   xmlns:svg="http://www.w3.org/2000/svg"
   xmlns="http://www.w3.org/2000/svg"
   xmlns:sodipodi="http://sodipodi.sourceforge.net/DTD/sodipodi-0.dtd"
   xmlns:inkscape="http://www.inkscape.org/namespaces/inkscape"
   version="1.1"
   x="0px"
   y="0px"
   viewBox="0 0 120.666 297.73"
   style="enable-background:new 0 0 120.666 238.184;"
   xml:space="preserve"
   id="svg12"
   sodipodi:docname="noun_Overweight man_687029.svg"
   inkscape:version="0.92.4 (5da689c313, 2019-01-14)"><metadata
     id="metadata18"><rdf:RDF><cc:Work
         rdf:about=""><dc:format>image/svg+xml</dc:format><dc:type
           rdf:resource="http://purl.org/dc/dcmitype/StillImage" /></cc:Work></rdf:RDF></metadata><defs
     id="defs16" /><sodipodi:namedview
     pagecolor="#ffffff"
     bordercolor="#666666"
     borderopacity="1"
     objecttolerance="10"
     gridtolerance="10"
     guidetolerance="10"
     inkscape:pageopacity="0"
     inkscape:pageshadow="2"
     inkscape:window-width="1366"
     inkscape:window-height="705"
     id="namedview14"
     showgrid="false"
     inkscape:zoom="0.79266447"
     inkscape:cx="60.333"
     inkscape:cy="148.86501"
     inkscape:window-x="-8"
     inkscape:window-y="-8"
     inkscape:window-maximized="1"
     inkscape:current-layer="svg12" /><g
     id="g6"
     transform="translate(5.0173574e-4,29.773005)"><path
       d="m 90.872,54.809 c -4.506,-2.486 -8.663,-3.093 -11.322,-3.082 -0.027,0 -0.048,0.002 -0.075,0.002 C 79.282,51.714 79.088,51.7 78.891,51.7 H 60.333 41.775 c -0.197,0 -0.39,0.015 -0.583,0.029 -0.027,0 -0.048,-0.002 -0.076,-0.002 -2.662,-0.011 -6.818,0.596 -11.325,3.082 -6.824,3.732 -13.851,11.377 -19.208,25.055 -5.391,13.733 -9.441,33.733 -10.577,63.871 -0.185,4.967 3.69,9.144 8.658,9.329 0.115,0.005 0.229,0.007 0.342,0.007 4.816,0 8.806,-3.813 8.988,-8.665 0.109,-3.015 0.253,-5.898 0.423,-8.684 -3.208,-5.085 -5.085,-11.688 -5.085,-20.224 0,-13.496 5.081,-25.213 14.304,-34.002 0.341,-0.324 0.747,-0.635 1.201,-0.935 -8.208,7.913 -13.505,19.218 -13.505,32.937 0,11.778 3.911,21.985 10.208,29.832 -1.609,-1.188 -3.098,-2.53 -4.439,-4.046 l 12.238,88.892 c 0,5.527 5.536,10.008 12.362,10.008 6.828,0 12.365,-4.48 12.365,-10.008 v -68.059 c 0.753,0.039 1.508,0.061 2.266,0.061 0.758,0 1.513,-0.021 2.266,-0.061 v 68.059 c 0,5.527 5.537,10.008 12.365,10.008 6.826,0 12.363,-4.48 12.363,-10.008 l 12.237,-88.891 c -1.342,1.516 -2.83,2.857 -4.44,4.047 6.298,-7.848 10.209,-18.056 10.209,-29.834 0,-13.718 -5.297,-25.022 -13.503,-32.935 0.454,0.299 0.859,0.608 1.199,0.933 9.224,8.791 14.305,20.506 14.305,34.002 0,8.539 -1.878,15.144 -5.088,20.229 0.171,2.781 0.315,5.668 0.426,8.678 0.182,4.853 4.171,8.665 8.987,8.665 0.114,0 0.228,-0.002 0.342,-0.007 4.967,-0.186 8.844,-4.362 8.659,-9.329 -1.543,-40.162 -8.15,-62.391 -16.422,-75.615 -4.141,-6.577 -8.85,-10.843 -13.365,-13.31 z"
       id="path2"
       inkscape:connector-curvature="0" /><circle
       cx="60.333"
       cy="22.5"
       r="22.5"
       id="circle4" /></g><text
     x="0"
     y="258.18399999999997"
     fill="#000000"
     font-size="5px"
     font-weight="bold"
     font-family="'Helvetica Neue', Helvetica, Arial-Unicode, Arial, Sans-serif"
     id="text10">from the Noun Project</text>
</svg>